<mxfile host="app.diagrams.net" agent="Mozilla/5.0 (Macintosh; Intel Mac OS X 10_15_7) AppleWebKit/537.36 (KHTML, like Gecko) Chrome/139.0.0.0 Safari/537.36" version="28.2.4">
  <diagram name="第 1 页" id="nQwPNjDB2ixt2j3xvhfY">
    <mxGraphModel dx="946" dy="610" grid="1" gridSize="10" guides="1" tooltips="1" connect="1" arrows="1" fold="1" page="1" pageScale="1" pageWidth="827" pageHeight="1169" math="0" shadow="0">
      <root>
        <mxCell id="0" />
        <mxCell id="1" parent="0" />
        <mxCell id="kMashPudIHa3zGJLMDz7-2" style="edgeStyle=orthogonalEdgeStyle;rounded=0;orthogonalLoop=1;jettySize=auto;html=1;" edge="1" parent="1" source="kMashPudIHa3zGJLMDz7-3" target="kMashPudIHa3zGJLMDz7-19">
          <mxGeometry relative="1" as="geometry" />
        </mxCell>
        <mxCell id="kMashPudIHa3zGJLMDz7-3" value="" style="rounded=1;whiteSpace=wrap;html=1;" vertex="1" parent="1">
          <mxGeometry x="540" y="560" width="590" height="270" as="geometry" />
        </mxCell>
        <mxCell id="kMashPudIHa3zGJLMDz7-4" style="edgeStyle=orthogonalEdgeStyle;rounded=0;orthogonalLoop=1;jettySize=auto;html=1;entryX=0.49;entryY=0.012;entryDx=0;entryDy=0;entryPerimeter=0;" edge="1" parent="1" source="kMashPudIHa3zGJLMDz7-5" target="kMashPudIHa3zGJLMDz7-3">
          <mxGeometry relative="1" as="geometry" />
        </mxCell>
        <mxCell id="kMashPudIHa3zGJLMDz7-5" value="高热PIPE" style="shape=cylinder3;whiteSpace=wrap;html=1;boundedLbl=1;backgroundOutline=1;size=15;" vertex="1" parent="1">
          <mxGeometry x="775" y="420" width="110" height="70" as="geometry" />
        </mxCell>
        <mxCell id="kMashPudIHa3zGJLMDz7-6" value="" style="edgeStyle=orthogonalEdgeStyle;rounded=0;orthogonalLoop=1;jettySize=auto;html=1;" edge="1" parent="1" source="kMashPudIHa3zGJLMDz7-7" target="kMashPudIHa3zGJLMDz7-10">
          <mxGeometry relative="1" as="geometry" />
        </mxCell>
        <mxCell id="kMashPudIHa3zGJLMDz7-7" value="过滤敏感资源" style="rounded=1;whiteSpace=wrap;html=1;" vertex="1" parent="1">
          <mxGeometry x="575" y="610" width="120" height="60" as="geometry" />
        </mxCell>
        <mxCell id="kMashPudIHa3zGJLMDz7-8" value="&lt;b&gt;&lt;font style=&quot;font-size: 14px;&quot;&gt;Process&lt;/font&gt;&lt;/b&gt;" style="text;html=1;align=center;verticalAlign=middle;whiteSpace=wrap;rounded=0;" vertex="1" parent="1">
          <mxGeometry x="570" y="570" width="60" height="30" as="geometry" />
        </mxCell>
        <mxCell id="kMashPudIHa3zGJLMDz7-9" value="" style="edgeStyle=orthogonalEdgeStyle;rounded=0;orthogonalLoop=1;jettySize=auto;html=1;" edge="1" parent="1" source="kMashPudIHa3zGJLMDz7-10" target="kMashPudIHa3zGJLMDz7-12">
          <mxGeometry relative="1" as="geometry" />
        </mxCell>
        <mxCell id="kMashPudIHa3zGJLMDz7-10" value="获取模型信息&lt;div&gt;(策略模型升级)&lt;/div&gt;" style="rounded=1;whiteSpace=wrap;html=1;" vertex="1" parent="1">
          <mxGeometry x="775" y="610" width="120" height="60" as="geometry" />
        </mxCell>
        <mxCell id="kMashPudIHa3zGJLMDz7-11" value="" style="edgeStyle=orthogonalEdgeStyle;rounded=0;orthogonalLoop=1;jettySize=auto;html=1;" edge="1" parent="1" source="kMashPudIHa3zGJLMDz7-12" target="kMashPudIHa3zGJLMDz7-14">
          <mxGeometry relative="1" as="geometry" />
        </mxCell>
        <mxCell id="kMashPudIHa3zGJLMDz7-12" value="条件过滤&lt;div&gt;（标题关键字、NID、置顶资源、敏感资源)&lt;/div&gt;" style="rounded=1;whiteSpace=wrap;html=1;" vertex="1" parent="1">
          <mxGeometry x="975" y="610" width="120" height="60" as="geometry" />
        </mxCell>
        <mxCell id="kMashPudIHa3zGJLMDz7-13" value="" style="edgeStyle=orthogonalEdgeStyle;rounded=0;orthogonalLoop=1;jettySize=auto;html=1;" edge="1" parent="1" source="kMashPudIHa3zGJLMDz7-14" target="kMashPudIHa3zGJLMDz7-16">
          <mxGeometry relative="1" as="geometry" />
        </mxCell>
        <mxCell id="kMashPudIHa3zGJLMDz7-14" value="评论区正常判断" style="rounded=1;whiteSpace=wrap;html=1;" vertex="1" parent="1">
          <mxGeometry x="975" y="730" width="120" height="60" as="geometry" />
        </mxCell>
        <mxCell id="kMashPudIHa3zGJLMDz7-16" value="组装数据" style="rounded=1;whiteSpace=wrap;html=1;" vertex="1" parent="1">
          <mxGeometry x="775" y="730" width="120" height="60" as="geometry" />
        </mxCell>
        <mxCell id="kMashPudIHa3zGJLMDz7-18" style="edgeStyle=orthogonalEdgeStyle;rounded=0;orthogonalLoop=1;jettySize=auto;html=1;entryX=0.5;entryY=0;entryDx=0;entryDy=0;" edge="1" parent="1" source="kMashPudIHa3zGJLMDz7-19" target="kMashPudIHa3zGJLMDz7-28">
          <mxGeometry relative="1" as="geometry" />
        </mxCell>
        <mxCell id="kMashPudIHa3zGJLMDz7-19" value="高热资源生成PIPE" style="shape=cylinder3;whiteSpace=wrap;html=1;boundedLbl=1;backgroundOutline=1;size=15;" vertex="1" parent="1">
          <mxGeometry x="780" y="910" width="110" height="70" as="geometry" />
        </mxCell>
        <mxCell id="kMashPudIHa3zGJLMDz7-28" value="" style="rounded=1;whiteSpace=wrap;html=1;" vertex="1" parent="1">
          <mxGeometry x="500" y="1050" width="670" height="350" as="geometry" />
        </mxCell>
        <mxCell id="kMashPudIHa3zGJLMDz7-31" value="&lt;span style=&quot;font-size: 14px;&quot;&gt;&lt;b&gt;Rec&lt;/b&gt;&lt;/span&gt;" style="text;html=1;align=center;verticalAlign=middle;whiteSpace=wrap;rounded=0;" vertex="1" parent="1">
          <mxGeometry x="540" y="1060" width="60" height="30" as="geometry" />
        </mxCell>
        <mxCell id="kMashPudIHa3zGJLMDz7-67" value="" style="edgeStyle=orthogonalEdgeStyle;rounded=0;orthogonalLoop=1;jettySize=auto;html=1;" edge="1" parent="1" source="kMashPudIHa3zGJLMDz7-33" target="kMashPudIHa3zGJLMDz7-66">
          <mxGeometry relative="1" as="geometry" />
        </mxCell>
        <mxCell id="kMashPudIHa3zGJLMDz7-33" value="检查参数" style="rounded=1;whiteSpace=wrap;html=1;" vertex="1" parent="1">
          <mxGeometry x="520" y="1100" width="120" height="60" as="geometry" />
        </mxCell>
        <mxCell id="kMashPudIHa3zGJLMDz7-40" style="edgeStyle=orthogonalEdgeStyle;rounded=0;orthogonalLoop=1;jettySize=auto;html=1;" edge="1" parent="1" source="kMashPudIHa3zGJLMDz7-41" target="kMashPudIHa3zGJLMDz7-43">
          <mxGeometry relative="1" as="geometry">
            <Array as="points">
              <mxPoint x="1513" y="940" />
            </Array>
          </mxGeometry>
        </mxCell>
        <mxCell id="kMashPudIHa3zGJLMDz7-41" value="策略模块" style="rounded=1;whiteSpace=wrap;html=1;fillColor=#ffe6cc;strokeColor=#d79b00;" vertex="1" parent="1">
          <mxGeometry x="1100" y="925" width="190" height="40" as="geometry" />
        </mxCell>
        <mxCell id="kMashPudIHa3zGJLMDz7-43" value="" style="rounded=1;whiteSpace=wrap;html=1;" vertex="1" parent="1">
          <mxGeometry x="1222.5" y="1050" width="570" height="350" as="geometry" />
        </mxCell>
        <mxCell id="kMashPudIHa3zGJLMDz7-44" value="" style="edgeStyle=orthogonalEdgeStyle;rounded=0;orthogonalLoop=1;jettySize=auto;html=1;" edge="1" parent="1" source="kMashPudIHa3zGJLMDz7-45" target="kMashPudIHa3zGJLMDz7-64">
          <mxGeometry relative="1" as="geometry" />
        </mxCell>
        <mxCell id="kMashPudIHa3zGJLMDz7-45" value="参数检查" style="rounded=1;whiteSpace=wrap;html=1;" vertex="1" parent="1">
          <mxGeometry x="1247.5" y="1120" width="120" height="60" as="geometry" />
        </mxCell>
        <mxCell id="kMashPudIHa3zGJLMDz7-46" value="&lt;span style=&quot;font-size: 14px;&quot;&gt;&lt;b&gt;Rec&lt;/b&gt;&lt;/span&gt;" style="text;html=1;align=center;verticalAlign=middle;whiteSpace=wrap;rounded=0;" vertex="1" parent="1">
          <mxGeometry x="1267.5" y="1080" width="60" height="30" as="geometry" />
        </mxCell>
        <mxCell id="kMashPudIHa3zGJLMDz7-47" value="" style="edgeStyle=orthogonalEdgeStyle;rounded=0;orthogonalLoop=1;jettySize=auto;html=1;" edge="1" parent="1" source="kMashPudIHa3zGJLMDz7-48" target="kMashPudIHa3zGJLMDz7-50">
          <mxGeometry relative="1" as="geometry" />
        </mxCell>
        <mxCell id="kMashPudIHa3zGJLMDz7-48" value="封装信息" style="rounded=1;whiteSpace=wrap;html=1;" vertex="1" parent="1">
          <mxGeometry x="1660" y="1120" width="120" height="60" as="geometry" />
        </mxCell>
        <mxCell id="kMashPudIHa3zGJLMDz7-49" value="" style="edgeStyle=orthogonalEdgeStyle;rounded=0;orthogonalLoop=1;jettySize=auto;html=1;" edge="1" parent="1" source="kMashPudIHa3zGJLMDz7-50" target="kMashPudIHa3zGJLMDz7-52">
          <mxGeometry relative="1" as="geometry" />
        </mxCell>
        <mxCell id="kMashPudIHa3zGJLMDz7-50" value="获取马甲号" style="rounded=1;whiteSpace=wrap;html=1;" vertex="1" parent="1">
          <mxGeometry x="1660" y="1240" width="120" height="60" as="geometry" />
        </mxCell>
        <mxCell id="kMashPudIHa3zGJLMDz7-51" value="" style="edgeStyle=orthogonalEdgeStyle;rounded=0;orthogonalLoop=1;jettySize=auto;html=1;" edge="1" parent="1" source="kMashPudIHa3zGJLMDz7-52" target="kMashPudIHa3zGJLMDz7-53">
          <mxGeometry relative="1" as="geometry" />
        </mxCell>
        <mxCell id="kMashPudIHa3zGJLMDz7-52" value="灌入评论" style="rounded=1;whiteSpace=wrap;html=1;" vertex="1" parent="1">
          <mxGeometry x="1447.5" y="1240" width="120" height="60" as="geometry" />
        </mxCell>
        <mxCell id="kMashPudIHa3zGJLMDz7-53" value="马甲号回调" style="rounded=1;whiteSpace=wrap;html=1;" vertex="1" parent="1">
          <mxGeometry x="1247.5" y="1240" width="120" height="60" as="geometry" />
        </mxCell>
        <mxCell id="kMashPudIHa3zGJLMDz7-62" value="" style="edgeStyle=orthogonalEdgeStyle;rounded=0;orthogonalLoop=1;jettySize=auto;html=1;" edge="1" parent="1" source="kMashPudIHa3zGJLMDz7-64" target="kMashPudIHa3zGJLMDz7-48">
          <mxGeometry relative="1" as="geometry" />
        </mxCell>
        <mxCell id="kMashPudIHa3zGJLMDz7-63" value="否" style="edgeLabel;html=1;align=center;verticalAlign=middle;resizable=0;points=[];" vertex="1" connectable="0" parent="kMashPudIHa3zGJLMDz7-62">
          <mxGeometry x="-0.4044" y="1" relative="1" as="geometry">
            <mxPoint as="offset" />
          </mxGeometry>
        </mxCell>
        <mxCell id="kMashPudIHa3zGJLMDz7-64" value="生成失败？" style="rhombus;whiteSpace=wrap;html=1;rounded=1;" vertex="1" parent="1">
          <mxGeometry x="1467.5" y="1110" width="80" height="80" as="geometry" />
        </mxCell>
        <mxCell id="kMashPudIHa3zGJLMDz7-69" value="" style="edgeStyle=orthogonalEdgeStyle;rounded=0;orthogonalLoop=1;jettySize=auto;html=1;" edge="1" parent="1" source="kMashPudIHa3zGJLMDz7-66" target="kMashPudIHa3zGJLMDz7-68">
          <mxGeometry relative="1" as="geometry">
            <Array as="points">
              <mxPoint x="820" y="1130" />
              <mxPoint x="820" y="1235" />
            </Array>
          </mxGeometry>
        </mxCell>
        <mxCell id="kMashPudIHa3zGJLMDz7-66" value="获取评论数" style="rounded=1;whiteSpace=wrap;html=1;" vertex="1" parent="1">
          <mxGeometry x="680" y="1100" width="120" height="60" as="geometry" />
        </mxCell>
        <mxCell id="kMashPudIHa3zGJLMDz7-78" style="edgeStyle=orthogonalEdgeStyle;rounded=0;orthogonalLoop=1;jettySize=auto;html=1;entryX=1;entryY=0.5;entryDx=0;entryDy=0;" edge="1" parent="1" source="kMashPudIHa3zGJLMDz7-68" target="kMashPudIHa3zGJLMDz7-77">
          <mxGeometry relative="1" as="geometry">
            <Array as="points">
              <mxPoint x="820" y="1235" />
              <mxPoint x="820" y="1310" />
            </Array>
          </mxGeometry>
        </mxCell>
        <mxCell id="kMashPudIHa3zGJLMDz7-68" value="" style="rounded=1;whiteSpace=wrap;html=1;" vertex="1" parent="1">
          <mxGeometry x="850" y="1100" width="300" height="270" as="geometry" />
        </mxCell>
        <mxCell id="kMashPudIHa3zGJLMDz7-72" value="" style="edgeStyle=orthogonalEdgeStyle;rounded=0;orthogonalLoop=1;jettySize=auto;html=1;" edge="1" parent="1" source="kMashPudIHa3zGJLMDz7-70" target="kMashPudIHa3zGJLMDz7-71">
          <mxGeometry relative="1" as="geometry" />
        </mxCell>
        <mxCell id="kMashPudIHa3zGJLMDz7-70" value="评论数&amp;gt;分发1%不灌评" style="rounded=1;whiteSpace=wrap;html=1;" vertex="1" parent="1">
          <mxGeometry x="860" y="1130" width="120" height="60" as="geometry" />
        </mxCell>
        <mxCell id="kMashPudIHa3zGJLMDz7-74" value="" style="edgeStyle=orthogonalEdgeStyle;rounded=0;orthogonalLoop=1;jettySize=auto;html=1;" edge="1" parent="1" source="kMashPudIHa3zGJLMDz7-71" target="kMashPudIHa3zGJLMDz7-73">
          <mxGeometry relative="1" as="geometry" />
        </mxCell>
        <mxCell id="kMashPudIHa3zGJLMDz7-71" value="机器评论&amp;gt;=用户评论不灌评" style="rounded=1;whiteSpace=wrap;html=1;" vertex="1" parent="1">
          <mxGeometry x="1020" y="1130" width="120" height="60" as="geometry" />
        </mxCell>
        <mxCell id="kMashPudIHa3zGJLMDz7-76" value="" style="edgeStyle=orthogonalEdgeStyle;rounded=0;orthogonalLoop=1;jettySize=auto;html=1;" edge="1" parent="1" source="kMashPudIHa3zGJLMDz7-73" target="kMashPudIHa3zGJLMDz7-75">
          <mxGeometry relative="1" as="geometry" />
        </mxCell>
        <mxCell id="kMashPudIHa3zGJLMDz7-73" value="AI角色灌入失败 ||&lt;div&gt;AI角色黑名单垂类&lt;/div&gt;" style="rounded=1;whiteSpace=wrap;html=1;" vertex="1" parent="1">
          <mxGeometry x="1020" y="1270" width="120" height="60" as="geometry" />
        </mxCell>
        <mxCell id="kMashPudIHa3zGJLMDz7-75" value="默认灌入AI角色" style="rounded=1;whiteSpace=wrap;html=1;" vertex="1" parent="1">
          <mxGeometry x="870" y="1270" width="120" height="60" as="geometry" />
        </mxCell>
        <mxCell id="kMashPudIHa3zGJLMDz7-79" style="edgeStyle=orthogonalEdgeStyle;rounded=0;orthogonalLoop=1;jettySize=auto;html=1;entryX=0.5;entryY=1;entryDx=0;entryDy=0;dashed=1;" edge="1" parent="1" source="kMashPudIHa3zGJLMDz7-77" target="kMashPudIHa3zGJLMDz7-41">
          <mxGeometry relative="1" as="geometry">
            <Array as="points">
              <mxPoint x="740" y="1380" />
              <mxPoint x="1195" y="1380" />
            </Array>
          </mxGeometry>
        </mxCell>
        <mxCell id="kMashPudIHa3zGJLMDz7-77" value="请求策略" style="rounded=1;whiteSpace=wrap;html=1;" vertex="1" parent="1">
          <mxGeometry x="680" y="1280" width="120" height="60" as="geometry" />
        </mxCell>
      </root>
    </mxGraphModel>
  </diagram>
</mxfile>
